<?xml version="1.0" standalone="no"?>
<!DOCTYPE svg PUBLIC "-//W3C//DTD SVG 20010904//EN"
 "http://www.w3.org/TR/2001/REC-SVG-20010904/DTD/svg10.dtd">
<svg version="1.0" xmlns="http://www.w3.org/2000/svg"
 width="128.000000pt" height="128.000000pt" viewBox="0 0 128.000000 128.000000"
 preserveAspectRatio="xMidYMid meet">

<g transform="translate(0.000000,128.000000) scale(0.100000,-0.100000)"
fill="#000000" stroke="none">
<path d="M127 1185 c28 -33 106 -114 172 -179 67 -66 121 -120 121 -122 0 -13
-37 -34 -60 -34 -24 0 -34 10 -75 75 -54 86 -71 101 -26 21 37 -64 38 -76 7
-129 -14 -23 -29 -68 -35 -100 -13 -70 -19 -84 -89 -175 -46 -61 -56 -82 -60
-123 -4 -44 0 -60 34 -126 21 -41 44 -77 51 -80 23 -9 116 29 154 64 54 49 53
83 -3 135 -23 21 -45 38 -49 38 -3 0 -14 16 -24 36 -17 36 -17 37 14 115 17
43 31 93 31 111 0 47 22 74 73 86 59 15 97 47 97 81 0 31 -38 70 -225 231
-163 141 -167 144 -108 75z m48 -785 c0 -16 -6 -26 -17 -28 -14 -3 -18 3 -18
28 0 25 4 31 18 28 11 -2 17 -12 17 -28z"/>
<path d="M405 1121 c-8 -14 12 -97 35 -142 30 -57 133 -121 117 -71 -39 119
-69 188 -89 204 -25 19 -54 23 -63 9z"/>
<path d="M582 1095 c20 -22 58 -67 85 -101 86 -109 122 -131 235 -143 56 -6
67 -5 67 8 1 9 4 39 7 67 l6 52 -58 28 c-51 25 -73 29 -164 32 -97 4 -107 6
-135 31 -60 53 -80 65 -43 26z"/>
<path d="M1002 1098 c-3 -48 -11 -58 -39 -47 -38 14 -41 11 -7 -10 41 -25 47
-36 55 -96 l6 -50 2 42 c1 52 11 59 47 31 22 -17 19 -11 -13 25 -32 37 -43 59
-46 90 -2 23 -4 30 -5 15z"/>
<path d="M1037 871 c-15 -29 -14 -30 14 -36 16 -4 31 -11 34 -16 4 -5 11 -9
16 -9 10 0 -25 75 -40 84 -5 4 -16 -7 -24 -23z"/>
<path d="M763 791 c8 -51 77 -111 174 -151 161 -67 211 -99 241 -155 10 -19
11 -18 17 8 4 15 5 53 3 83 -9 110 -83 172 -239 200 -46 9 -110 24 -143 33
l-58 18 5 -36z"/>
<path d="M472 773 c-21 -18 -25 -32 -23 -65 1 -14 10 -18 40 -18 49 0 86 28
77 57 -8 26 -34 38 -32 15 1 -11 -8 -18 -26 -20 -35 -4 -39 24 -5 38 15 6 17
9 6 9 -9 1 -26 -7 -37 -16z"/>
<path d="M848 590 c9 -91 -35 -133 -166 -159 -124 -25 -150 -42 -52 -35 121 9
168 22 206 61 30 30 34 40 34 86 0 29 -6 61 -13 71 -11 15 -12 12 -9 -24z"/>
<path d="M910 555 c0 -47 16 -83 78 -178 60 -92 76 -136 69 -188 -5 -35 -4
-37 14 -26 43 26 73 86 77 152 7 113 -23 160 -155 234 -40 23 -75 41 -78 41
-3 0 -5 -16 -5 -35z"/>
<path d="M459 306 c-94 -38 -149 -86 -99 -86 35 0 83 -26 138 -74 58 -50 91
-57 130 -30 25 17 31 71 10 92 -14 14 -64 16 -72 4 -3 -5 8 -6 24 -4 21 3 31
-1 39 -16 23 -43 -20 -82 -66 -60 -52 26 -46 92 9 111 21 6 37 4 65 -10 31
-14 47 -34 81 -99 51 -95 85 -121 145 -110 50 9 56 25 8 19 -33 -5 -44 -1 -65
20 -13 13 -28 42 -31 63 -20 113 -50 165 -112 190 -50 21 -139 17 -204 -10z"/>
</g>
</svg>
